<svg id="loader-svg" xmlns="http://www.w3.org/2000/svg" viewBox="0 0 895 255">
    <defs>
        <clipPath id="reveal-clip">
            <rect id="reveal-rect" x="0" y="0" width="0" height="255" />
        </clipPath>
    </defs>
    <g class="loader-outline" fill="#686868">
        <path class="cls-1" d="M388.734 220.096H314.169L313.369 201.188C320.823 190.803 334.139 160.44 339.732 127.685L326.416 126.354C314.7 190.003 287.799 224.358 252.113 224.358C216.427 224.358 199.649 199.326 199.649 154.316V5.5242H274.221V154.316C274.221 172.425 276.614 182.279 285.668 182.279C303.246 182.279 314.162 92.6122 314.162 5.5242H388.727V220.096H388.734Z" />
        <path class="cls-1" d="M577.295 89.4125C593.81 62.7806 597.534 36.1488 585.818 28.9564C573.564 21.764 550.394 36.9487 534.154 63.8426C517.107 90.2055 513.646 117.106 525.631 124.299C537.347 131.491 560.517 115.775 577.295 89.4125ZM418.034 5.52418H492.599L493.399 24.4327C482.745 34.0179 467.036 63.3185 467.036 97.9358L480.883 99.7977C480.883 93.4052 481.945 68.1042 497.392 45.203C525.886 2.86238 579.418 -11.7845 618.028 13.5096C656.914 38.8106 665.7 93.9362 638.006 136.815C609.774 179.955 555.979 194.071 517.362 168.508C507.777 162.116 498.454 152.53 492.592 142.676V220.924H418.027V5.52418H418.034Z" />
        <path class="cls-1" d="M766.11 140.359C766.11 142.869 764.076 144.911 761.566 144.917L736.017 145.021C733.486 145.028 731.438 142.98 731.445 140.449L731.555 95.0258C731.555 93.7776 732.072 92.5915 732.976 91.7295L739.375 82.3718C740.258 81.5305 740.768 80.3789 740.796 79.1584L741.499 45.5272C741.554 43.0447 743.575 41.0655 746.057 41.0655H750.884C753.339 41.0655 755.353 43.0102 755.443 45.4582L756.663 79.1101C756.705 80.31 757.222 81.4409 758.091 82.2684L764.683 91.7295C765.6 92.5915 766.117 93.7914 766.117 95.0464V140.359H766.11ZM790.639 3.46924H708.482L634.53 222.572H713.943L723.797 184.224H775.289L785.143 222.572H864.577L790.639 3.46924Z" />
        <path class="cls-1" d="M113.719 223.386C60.304 223.386 16.8462 185.065 16.8462 137.959C16.8462 127.133 22.5008 120.244 25.797 116.858H2.39245C1.84078 116.858 1.39255 116.41 1.39255 115.858V89.2263C1.39255 88.6746 1.84078 88.2264 2.39245 88.2264C8.41944 88.2264 56.2285 93.2742 59.0627 84.4199C65.4 64.6425 46.8915 19.8262 39.0371 8.74456C38.8234 8.44114 38.7889 8.04118 38.9613 7.70328C39.1337 7.37228 39.4785 7.15851 39.8508 7.15851H136.414C136.965 7.15851 137.414 7.60674 137.414 8.15841C137.414 39.8518 106.92 88.2126 107.051 88.2126H172.293C172.845 88.2126 173.293 88.6608 173.293 89.2125V115.844C173.293 116.396 172.845 116.844 172.293 116.844H95.3075C94.0386 117.603 90.5838 121.368 89.577 125.912C88.8253 129.298 89.577 132.319 91.825 134.891C98.9554 143.29 128.787 140.083 138.262 138.035C149.626 135.67 160.956 132.457 171.955 128.485C172.265 128.374 172.603 128.416 172.872 128.609C173.141 128.795 173.3 129.098 173.3 129.429V204.794C173.3 205.125 173.134 205.429 172.865 205.622C155.998 217.234 135.538 223.379 113.713 223.379L113.719 223.386Z" />
    </g>
    <g class="loader-fill" clip-path="url(#reveal-clip)" fill="#f5cf5d">
        <path class="cls-1" d="M388.734 220.096H314.169L313.369 201.188C320.823 190.803 334.139 160.44 339.732 127.685L326.416 126.354C314.7 190.003 287.799 224.358 252.113 224.358C216.427 224.358 199.649 199.326 199.649 154.316V5.5242H274.221V154.316C274.221 172.425 276.614 182.279 285.668 182.279C303.246 182.279 314.162 92.6122 314.162 5.5242H388.727V220.096H388.734Z" />
        <path class="cls-1" d="M577.295 89.4125C593.81 62.7806 597.534 36.1488 585.818 28.9564C573.564 21.764 550.394 36.9487 534.154 63.8426C517.107 90.2055 513.646 117.106 525.631 124.299C537.347 131.491 560.517 115.775 577.295 89.4125ZM418.034 5.52418H492.599L493.399 24.4327C482.745 34.0179 467.036 63.3185 467.036 97.9358L480.883 99.7977C480.883 93.4052 481.945 68.1042 497.392 45.203C525.886 2.86238 579.418 -11.7845 618.028 13.5096C656.914 38.8106 665.7 93.9362 638.006 136.815C609.774 179.955 555.979 194.071 517.362 168.508C507.777 162.116 498.454 152.53 492.592 142.676V220.924H418.027V5.52418H418.034Z" />
        <path class="cls-1" d="M766.11 140.359C766.11 142.869 764.076 144.911 761.566 144.917L736.017 145.021C733.486 145.028 731.438 142.98 731.445 140.449L731.555 95.0258C731.555 93.7776 732.072 92.5915 732.976 91.7295L739.375 82.3718C740.258 81.5305 740.768 80.3789 740.796 79.1584L741.499 45.5272C741.554 43.0447 743.575 41.0655 746.057 41.0655H750.884C753.339 41.0655 755.353 43.0102 755.443 45.4582L756.663 79.1101C756.705 80.31 757.222 81.4409 758.091 82.2684L764.683 91.7295C765.6 92.5915 766.117 93.7914 766.117 95.0464V140.359H766.11ZM790.639 3.46924H708.482L634.53 222.572H713.943L723.797 184.224H775.289L785.143 222.572H864.577L790.639 3.46924Z" />
        <path class="cls-1" d="M113.719 223.386C60.304 223.386 16.8462 185.065 16.8462 137.959C16.8462 127.133 22.5008 120.244 25.797 116.858H2.39245C1.84078 116.858 1.39255 116.41 1.39255 115.858V89.2263C1.39255 88.6746 1.84078 88.2264 2.39245 88.2264C8.41944 88.2264 56.2285 93.2742 59.0627 84.4199C65.4 64.6425 46.8915 19.8262 39.0371 8.74456C38.8234 8.44114 38.7889 8.04118 38.9613 7.70328C39.1337 7.37228 39.4785 7.15851 39.8508 7.15851H136.414C136.965 7.15851 137.414 7.60674 137.414 8.15841C137.414 39.8518 106.92 88.2126 107.051 88.2126H172.293C172.845 88.2126 173.293 88.6608 173.293 89.2125V115.844C173.293 116.396 172.845 116.844 172.293 116.844H95.3075C94.0386 117.603 90.5838 121.368 89.577 125.912C88.8253 129.298 89.577 132.319 91.825 134.891C98.9554 143.29 128.787 140.083 138.262 138.035C149.626 135.67 160.956 132.457 171.955 128.485C172.265 128.374 172.603 128.416 172.872 128.609C173.141 128.795 173.3 129.098 173.3 129.429V204.794C173.3 205.125 173.134 205.429 172.865 205.622C155.998 217.234 135.538 223.379 113.713 223.379L113.719 223.386Z" />
    </g>
</svg>